<svg viewBox="0 0 32 32" xmlns="http://www.w3.org/2000/svg"><path d="m30 15v2h-24v-11h10v-2h-11a1 1 0 0 0 -1 1v12h-2v-14a1 1 0 0 1 1-1h15v-2h-15a3 3 0 0 0 -3 3v20a1 1 0 0 0 1 1h8.85l-.71 5h-1.14a1 1 0 0 0 -1 1h-2v2h22v-2h-2a1 1 0 0 0 -1-1h-1.13l-.71-5h8.84a1 1 0 0 0 1-1v-8zm-18.85 14 .71-5h8.27l.71 5zm18.85-7h-28v-3h28z"/><path d="m21.57 9-1.27 1.27 1.41 1.41 1.29-1.25a4 4 0 0 0 1 .42v2.15h2v-2.14a4 4 0 0 0 1-.42l1.27 1.27 1.41-1.41-1.25-1.3a4 4 0 0 0 .42-1h2.15v-2h-2.14a4 4 0 0 0 -.42-1l1.27-1.27-1.42-1.44-1.29 1.28a4 4 0 0 0 -1-.42v-2.15h-2v2.14a4 4 0 0 0 -1 .42l-1.29-1.27-1.42 1.42 1.28 1.29a4 4 0 0 0 -.42 1h-2.15v2h2.14a4 4 0 0 0 .43 1zm3.43-4a2 2 0 1 1 -2 2 2 2 0 0 1 2-2z"/></svg>